<svg xmlns="http://www.w3.org/2000/svg" width="534" height="120" viewBox="0 0 534 120" shape-rendering="crispEdges">
<rect x="24" y="0" width="12" height="12" fill="#c9795a"/>
<rect x="36" y="0" width="12" height="12" fill="#c9795a"/>
<rect x="48" y="0" width="12" height="12" fill="#c9795a"/>
<rect x="60" y="0" width="12" height="12" fill="#c9795a"/>
<rect x="72" y="0" width="12" height="12" fill="#c9795a"/>
<rect x="84" y="0" width="12" height="12" fill="#c9795a"/>
<rect x="96" y="0" width="12" height="12" fill="#c9795a"/>
<rect x="108" y="0" width="12" height="12" fill="#c9795a"/>
<rect x="12" y="12" width="12" height="12" fill="#c9795a"/>
<rect x="24" y="12" width="12" height="12" fill="#c9795a"/>
<rect x="36" y="12" width="12" height="12" fill="#c9795a"/>
<rect x="48" y="12" width="12" height="12" fill="#c9795a"/>
<rect x="60" y="12" width="12" height="12" fill="#c9795a"/>
<rect x="72" y="12" width="12" height="12" fill="#c9795a"/>
<rect x="84" y="12" width="12" height="12" fill="#c9795a"/>
<rect x="96" y="12" width="12" height="12" fill="#c9795a"/>
<rect x="108" y="12" width="12" height="12" fill="#c9795a"/>
<rect x="120" y="12" width="12" height="12" fill="#c9795a"/>
<rect x="0" y="24" width="12" height="12" fill="#c9795a"/>
<rect x="12" y="24" width="12" height="12" fill="#c9795a"/>
<rect x="24" y="24" width="12" height="12" fill="#c9795a"/>
<rect x="36" y="24" width="12" height="12" fill="#c9795a"/>
<rect x="48" y="24" width="12" height="12" fill="#c9795a"/>
<rect x="60" y="24" width="12" height="12" fill="#c9795a"/>
<rect x="72" y="24" width="12" height="12" fill="#c9795a"/>
<rect x="84" y="24" width="12" height="12" fill="#c9795a"/>
<rect x="96" y="24" width="12" height="12" fill="#c9795a"/>
<rect x="108" y="24" width="12" height="12" fill="#c9795a"/>
<rect x="120" y="24" width="12" height="12" fill="#c9795a"/>
<rect x="132" y="24" width="12" height="12" fill="#c9795a"/>
<rect x="0" y="36" width="12" height="12" fill="#c9795a"/>
<rect x="12" y="36" width="12" height="12" fill="#c9795a"/>
<rect x="24" y="36" width="12" height="12" fill="#c9795a"/>
<rect x="36" y="36" width="12" height="12" fill="#141414"/>
<rect x="48" y="36" width="12" height="12" fill="#141414"/>
<rect x="60" y="36" width="12" height="12" fill="#c9795a"/>
<rect x="72" y="36" width="12" height="12" fill="#c9795a"/>
<rect x="84" y="36" width="12" height="12" fill="#141414"/>
<rect x="96" y="36" width="12" height="12" fill="#141414"/>
<rect x="108" y="36" width="12" height="12" fill="#c9795a"/>
<rect x="120" y="36" width="12" height="12" fill="#c9795a"/>
<rect x="132" y="36" width="12" height="12" fill="#c9795a"/>
<rect x="0" y="48" width="12" height="12" fill="#c9795a"/>
<rect x="12" y="48" width="12" height="12" fill="#c9795a"/>
<rect x="24" y="48" width="12" height="12" fill="#c9795a"/>
<rect x="36" y="48" width="12" height="12" fill="#141414"/>
<rect x="48" y="48" width="12" height="12" fill="#141414"/>
<rect x="60" y="48" width="12" height="12" fill="#c9795a"/>
<rect x="72" y="48" width="12" height="12" fill="#c9795a"/>
<rect x="84" y="48" width="12" height="12" fill="#141414"/>
<rect x="96" y="48" width="12" height="12" fill="#141414"/>
<rect x="108" y="48" width="12" height="12" fill="#c9795a"/>
<rect x="120" y="48" width="12" height="12" fill="#c9795a"/>
<rect x="132" y="48" width="12" height="12" fill="#c9795a"/>
<rect x="0" y="60" width="12" height="12" fill="#c9795a"/>
<rect x="12" y="60" width="12" height="12" fill="#c9795a"/>
<rect x="24" y="60" width="12" height="12" fill="#c9795a"/>
<rect x="36" y="60" width="12" height="12" fill="#c9795a"/>
<rect x="48" y="60" width="12" height="12" fill="#c9795a"/>
<rect x="60" y="60" width="12" height="12" fill="#c9795a"/>
<rect x="72" y="60" width="12" height="12" fill="#c9795a"/>
<rect x="84" y="60" width="12" height="12" fill="#c9795a"/>
<rect x="96" y="60" width="12" height="12" fill="#c9795a"/>
<rect x="108" y="60" width="12" height="12" fill="#c9795a"/>
<rect x="120" y="60" width="12" height="12" fill="#c9795a"/>
<rect x="132" y="60" width="12" height="12" fill="#c9795a"/>
<rect x="0" y="72" width="12" height="12" fill="#c9795a"/>
<rect x="12" y="72" width="12" height="12" fill="#c9795a"/>
<rect x="24" y="72" width="12" height="12" fill="#c9795a"/>
<rect x="36" y="72" width="12" height="12" fill="#c9795a"/>
<rect x="48" y="72" width="12" height="12" fill="#c9795a"/>
<rect x="60" y="72" width="12" height="12" fill="#c9795a"/>
<rect x="72" y="72" width="12" height="12" fill="#c9795a"/>
<rect x="84" y="72" width="12" height="12" fill="#c9795a"/>
<rect x="96" y="72" width="12" height="12" fill="#c9795a"/>
<rect x="108" y="72" width="12" height="12" fill="#c9795a"/>
<rect x="120" y="72" width="12" height="12" fill="#c9795a"/>
<rect x="132" y="72" width="12" height="12" fill="#c9795a"/>
<rect x="0" y="84" width="12" height="12" fill="#c9795a"/>
<rect x="12" y="84" width="12" height="12" fill="#c9795a"/>
<rect x="24" y="84" width="12" height="12" fill="#c9795a"/>
<rect x="36" y="84" width="12" height="12" fill="#c9795a"/>
<rect x="48" y="84" width="12" height="12" fill="#c9795a"/>
<rect x="60" y="84" width="12" height="12" fill="#c9795a"/>
<rect x="72" y="84" width="12" height="12" fill="#c9795a"/>
<rect x="84" y="84" width="12" height="12" fill="#c9795a"/>
<rect x="96" y="84" width="12" height="12" fill="#c9795a"/>
<rect x="108" y="84" width="12" height="12" fill="#c9795a"/>
<rect x="120" y="84" width="12" height="12" fill="#c9795a"/>
<rect x="132" y="84" width="12" height="12" fill="#c9795a"/>
<rect x="0" y="96" width="12" height="12" fill="#c9795a"/>
<rect x="12" y="96" width="12" height="12" fill="#c9795a"/>
<rect x="36" y="96" width="12" height="12" fill="#c9795a"/>
<rect x="48" y="96" width="12" height="12" fill="#c9795a"/>
<rect x="84" y="96" width="12" height="12" fill="#c9795a"/>
<rect x="96" y="96" width="12" height="12" fill="#c9795a"/>
<rect x="120" y="96" width="12" height="12" fill="#c9795a"/>
<rect x="132" y="96" width="12" height="12" fill="#c9795a"/>
<rect x="0" y="108" width="12" height="12" fill="#c9795a"/>
<rect x="36" y="108" width="12" height="12" fill="#c9795a"/>
<rect x="96" y="108" width="12" height="12" fill="#c9795a"/>
<rect x="132" y="108" width="12" height="12" fill="#c9795a"/>
<rect x="174" y="12" width="10" height="10" fill="#c9795a"/>
<rect x="184" y="12" width="10" height="10" fill="#c9795a"/>
<rect x="194" y="12" width="10" height="10" fill="#c9795a"/>
<rect x="204" y="12" width="10" height="10" fill="#c9795a"/>
<rect x="214" y="12" width="10" height="10" fill="#c9795a"/>
<rect x="174" y="22" width="10" height="10" fill="#c9795a"/>
<rect x="174" y="32" width="10" height="10" fill="#c9795a"/>
<rect x="174" y="42" width="10" height="10" fill="#c9795a"/>
<rect x="174" y="52" width="10" height="10" fill="#c9795a"/>
<rect x="184" y="52" width="10" height="10" fill="#c9795a"/>
<rect x="194" y="52" width="10" height="10" fill="#c9795a"/>
<rect x="204" y="52" width="10" height="10" fill="#c9795a"/>
<rect x="214" y="52" width="10" height="10" fill="#c9795a"/>
<rect x="234" y="12" width="10" height="10" fill="#c9795a"/>
<rect x="234" y="22" width="10" height="10" fill="#c9795a"/>
<rect x="234" y="32" width="10" height="10" fill="#c9795a"/>
<rect x="234" y="42" width="10" height="10" fill="#c9795a"/>
<rect x="234" y="52" width="10" height="10" fill="#c9795a"/>
<rect x="244" y="52" width="10" height="10" fill="#c9795a"/>
<rect x="254" y="52" width="10" height="10" fill="#c9795a"/>
<rect x="264" y="52" width="10" height="10" fill="#c9795a"/>
<rect x="274" y="52" width="10" height="10" fill="#c9795a"/>
<rect x="304" y="12" width="10" height="10" fill="#c9795a"/>
<rect x="314" y="12" width="10" height="10" fill="#c9795a"/>
<rect x="324" y="12" width="10" height="10" fill="#c9795a"/>
<rect x="294" y="22" width="10" height="10" fill="#c9795a"/>
<rect x="334" y="22" width="10" height="10" fill="#c9795a"/>
<rect x="294" y="32" width="10" height="10" fill="#c9795a"/>
<rect x="304" y="32" width="10" height="10" fill="#c9795a"/>
<rect x="314" y="32" width="10" height="10" fill="#c9795a"/>
<rect x="324" y="32" width="10" height="10" fill="#c9795a"/>
<rect x="334" y="32" width="10" height="10" fill="#c9795a"/>
<rect x="294" y="42" width="10" height="10" fill="#c9795a"/>
<rect x="334" y="42" width="10" height="10" fill="#c9795a"/>
<rect x="294" y="52" width="10" height="10" fill="#c9795a"/>
<rect x="334" y="52" width="10" height="10" fill="#c9795a"/>
<rect x="354" y="12" width="10" height="10" fill="#c9795a"/>
<rect x="394" y="12" width="10" height="10" fill="#c9795a"/>
<rect x="354" y="22" width="10" height="10" fill="#c9795a"/>
<rect x="394" y="22" width="10" height="10" fill="#c9795a"/>
<rect x="354" y="32" width="10" height="10" fill="#c9795a"/>
<rect x="394" y="32" width="10" height="10" fill="#c9795a"/>
<rect x="354" y="42" width="10" height="10" fill="#c9795a"/>
<rect x="394" y="42" width="10" height="10" fill="#c9795a"/>
<rect x="364" y="52" width="10" height="10" fill="#c9795a"/>
<rect x="374" y="52" width="10" height="10" fill="#c9795a"/>
<rect x="384" y="52" width="10" height="10" fill="#c9795a"/>
<rect x="414" y="12" width="10" height="10" fill="#c9795a"/>
<rect x="424" y="12" width="10" height="10" fill="#c9795a"/>
<rect x="434" y="12" width="10" height="10" fill="#c9795a"/>
<rect x="444" y="12" width="10" height="10" fill="#c9795a"/>
<rect x="414" y="22" width="10" height="10" fill="#c9795a"/>
<rect x="454" y="22" width="10" height="10" fill="#c9795a"/>
<rect x="414" y="32" width="10" height="10" fill="#c9795a"/>
<rect x="454" y="32" width="10" height="10" fill="#c9795a"/>
<rect x="414" y="42" width="10" height="10" fill="#c9795a"/>
<rect x="454" y="42" width="10" height="10" fill="#c9795a"/>
<rect x="414" y="52" width="10" height="10" fill="#c9795a"/>
<rect x="424" y="52" width="10" height="10" fill="#c9795a"/>
<rect x="434" y="52" width="10" height="10" fill="#c9795a"/>
<rect x="444" y="52" width="10" height="10" fill="#c9795a"/>
<rect x="474" y="12" width="10" height="10" fill="#c9795a"/>
<rect x="484" y="12" width="10" height="10" fill="#c9795a"/>
<rect x="494" y="12" width="10" height="10" fill="#c9795a"/>
<rect x="504" y="12" width="10" height="10" fill="#c9795a"/>
<rect x="514" y="12" width="10" height="10" fill="#c9795a"/>
<rect x="474" y="22" width="10" height="10" fill="#c9795a"/>
<rect x="474" y="32" width="10" height="10" fill="#c9795a"/>
<rect x="484" y="32" width="10" height="10" fill="#c9795a"/>
<rect x="494" y="32" width="10" height="10" fill="#c9795a"/>
<rect x="504" y="32" width="10" height="10" fill="#c9795a"/>
<rect x="474" y="42" width="10" height="10" fill="#c9795a"/>
<rect x="474" y="52" width="10" height="10" fill="#c9795a"/>
<rect x="484" y="52" width="10" height="10" fill="#c9795a"/>
<rect x="494" y="52" width="10" height="10" fill="#c9795a"/>
<rect x="504" y="52" width="10" height="10" fill="#c9795a"/>
<rect x="514" y="52" width="10" height="10" fill="#c9795a"/>
<rect x="184" y="72" width="10" height="10" fill="#c9795a"/>
<rect x="194" y="72" width="10" height="10" fill="#c9795a"/>
<rect x="204" y="72" width="10" height="10" fill="#c9795a"/>
<rect x="214" y="72" width="10" height="10" fill="#c9795a"/>
<rect x="174" y="82" width="10" height="10" fill="#c9795a"/>
<rect x="184" y="92" width="10" height="10" fill="#c9795a"/>
<rect x="194" y="92" width="10" height="10" fill="#c9795a"/>
<rect x="204" y="92" width="10" height="10" fill="#c9795a"/>
<rect x="214" y="102" width="10" height="10" fill="#c9795a"/>
<rect x="174" y="112" width="10" height="10" fill="#c9795a"/>
<rect x="184" y="112" width="10" height="10" fill="#c9795a"/>
<rect x="194" y="112" width="10" height="10" fill="#c9795a"/>
<rect x="204" y="112" width="10" height="10" fill="#c9795a"/>
<rect x="234" y="72" width="10" height="10" fill="#c9795a"/>
<rect x="274" y="72" width="10" height="10" fill="#c9795a"/>
<rect x="234" y="82" width="10" height="10" fill="#c9795a"/>
<rect x="274" y="82" width="10" height="10" fill="#c9795a"/>
<rect x="234" y="92" width="10" height="10" fill="#c9795a"/>
<rect x="254" y="92" width="10" height="10" fill="#c9795a"/>
<rect x="274" y="92" width="10" height="10" fill="#c9795a"/>
<rect x="234" y="102" width="10" height="10" fill="#c9795a"/>
<rect x="254" y="102" width="10" height="10" fill="#c9795a"/>
<rect x="274" y="102" width="10" height="10" fill="#c9795a"/>
<rect x="244" y="112" width="10" height="10" fill="#c9795a"/>
<rect x="264" y="112" width="10" height="10" fill="#c9795a"/>
<rect x="294" y="72" width="10" height="10" fill="#c9795a"/>
<rect x="304" y="72" width="10" height="10" fill="#c9795a"/>
<rect x="314" y="72" width="10" height="10" fill="#c9795a"/>
<rect x="324" y="72" width="10" height="10" fill="#c9795a"/>
<rect x="334" y="72" width="10" height="10" fill="#c9795a"/>
<rect x="314" y="82" width="10" height="10" fill="#c9795a"/>
<rect x="314" y="92" width="10" height="10" fill="#c9795a"/>
<rect x="314" y="102" width="10" height="10" fill="#c9795a"/>
<rect x="294" y="112" width="10" height="10" fill="#c9795a"/>
<rect x="304" y="112" width="10" height="10" fill="#c9795a"/>
<rect x="314" y="112" width="10" height="10" fill="#c9795a"/>
<rect x="324" y="112" width="10" height="10" fill="#c9795a"/>
<rect x="334" y="112" width="10" height="10" fill="#c9795a"/>
<rect x="354" y="72" width="10" height="10" fill="#c9795a"/>
<rect x="364" y="72" width="10" height="10" fill="#c9795a"/>
<rect x="374" y="72" width="10" height="10" fill="#c9795a"/>
<rect x="384" y="72" width="10" height="10" fill="#c9795a"/>
<rect x="394" y="72" width="10" height="10" fill="#c9795a"/>
<rect x="374" y="82" width="10" height="10" fill="#c9795a"/>
<rect x="374" y="92" width="10" height="10" fill="#c9795a"/>
<rect x="374" y="102" width="10" height="10" fill="#c9795a"/>
<rect x="374" y="112" width="10" height="10" fill="#c9795a"/>
<rect x="414" y="72" width="10" height="10" fill="#c9795a"/>
<rect x="424" y="72" width="10" height="10" fill="#c9795a"/>
<rect x="434" y="72" width="10" height="10" fill="#c9795a"/>
<rect x="444" y="72" width="10" height="10" fill="#c9795a"/>
<rect x="454" y="72" width="10" height="10" fill="#c9795a"/>
<rect x="414" y="82" width="10" height="10" fill="#c9795a"/>
<rect x="414" y="92" width="10" height="10" fill="#c9795a"/>
<rect x="414" y="102" width="10" height="10" fill="#c9795a"/>
<rect x="414" y="112" width="10" height="10" fill="#c9795a"/>
<rect x="424" y="112" width="10" height="10" fill="#c9795a"/>
<rect x="434" y="112" width="10" height="10" fill="#c9795a"/>
<rect x="444" y="112" width="10" height="10" fill="#c9795a"/>
<rect x="454" y="112" width="10" height="10" fill="#c9795a"/>
<rect x="474" y="72" width="10" height="10" fill="#c9795a"/>
<rect x="514" y="72" width="10" height="10" fill="#c9795a"/>
<rect x="474" y="82" width="10" height="10" fill="#c9795a"/>
<rect x="514" y="82" width="10" height="10" fill="#c9795a"/>
<rect x="474" y="92" width="10" height="10" fill="#c9795a"/>
<rect x="484" y="92" width="10" height="10" fill="#c9795a"/>
<rect x="494" y="92" width="10" height="10" fill="#c9795a"/>
<rect x="504" y="92" width="10" height="10" fill="#c9795a"/>
<rect x="514" y="92" width="10" height="10" fill="#c9795a"/>
<rect x="474" y="102" width="10" height="10" fill="#c9795a"/>
<rect x="514" y="102" width="10" height="10" fill="#c9795a"/>
<rect x="474" y="112" width="10" height="10" fill="#c9795a"/>
<rect x="514" y="112" width="10" height="10" fill="#c9795a"/>
</svg>

