<svg xmlns="http://www.w3.org/2000/svg" width="144" height="120" viewBox="0 0 144 120" shape-rendering="crispEdges">
<rect x="24" y="0" width="12" height="12" fill="#c9795a"/>
<rect x="36" y="0" width="12" height="12" fill="#c9795a"/>
<rect x="48" y="0" width="12" height="12" fill="#c9795a"/>
<rect x="60" y="0" width="12" height="12" fill="#c9795a"/>
<rect x="72" y="0" width="12" height="12" fill="#c9795a"/>
<rect x="84" y="0" width="12" height="12" fill="#c9795a"/>
<rect x="96" y="0" width="12" height="12" fill="#c9795a"/>
<rect x="108" y="0" width="12" height="12" fill="#c9795a"/>
<rect x="12" y="12" width="12" height="12" fill="#c9795a"/>
<rect x="24" y="12" width="12" height="12" fill="#c9795a"/>
<rect x="36" y="12" width="12" height="12" fill="#c9795a"/>
<rect x="48" y="12" width="12" height="12" fill="#c9795a"/>
<rect x="60" y="12" width="12" height="12" fill="#c9795a"/>
<rect x="72" y="12" width="12" height="12" fill="#c9795a"/>
<rect x="84" y="12" width="12" height="12" fill="#c9795a"/>
<rect x="96" y="12" width="12" height="12" fill="#c9795a"/>
<rect x="108" y="12" width="12" height="12" fill="#c9795a"/>
<rect x="120" y="12" width="12" height="12" fill="#c9795a"/>
<rect x="0" y="24" width="12" height="12" fill="#c9795a"/>
<rect x="12" y="24" width="12" height="12" fill="#c9795a"/>
<rect x="24" y="24" width="12" height="12" fill="#c9795a"/>
<rect x="36" y="24" width="12" height="12" fill="#c9795a"/>
<rect x="48" y="24" width="12" height="12" fill="#c9795a"/>
<rect x="60" y="24" width="12" height="12" fill="#c9795a"/>
<rect x="72" y="24" width="12" height="12" fill="#c9795a"/>
<rect x="84" y="24" width="12" height="12" fill="#c9795a"/>
<rect x="96" y="24" width="12" height="12" fill="#c9795a"/>
<rect x="108" y="24" width="12" height="12" fill="#c9795a"/>
<rect x="120" y="24" width="12" height="12" fill="#c9795a"/>
<rect x="132" y="24" width="12" height="12" fill="#c9795a"/>
<rect x="0" y="36" width="12" height="12" fill="#c9795a"/>
<rect x="12" y="36" width="12" height="12" fill="#c9795a"/>
<rect x="24" y="36" width="12" height="12" fill="#c9795a"/>
<rect x="36" y="36" width="12" height="12" fill="#141414"/>
<rect x="48" y="36" width="12" height="12" fill="#141414"/>
<rect x="60" y="36" width="12" height="12" fill="#c9795a"/>
<rect x="72" y="36" width="12" height="12" fill="#c9795a"/>
<rect x="84" y="36" width="12" height="12" fill="#141414"/>
<rect x="96" y="36" width="12" height="12" fill="#141414"/>
<rect x="108" y="36" width="12" height="12" fill="#c9795a"/>
<rect x="120" y="36" width="12" height="12" fill="#c9795a"/>
<rect x="132" y="36" width="12" height="12" fill="#c9795a"/>
<rect x="0" y="48" width="12" height="12" fill="#c9795a"/>
<rect x="12" y="48" width="12" height="12" fill="#c9795a"/>
<rect x="24" y="48" width="12" height="12" fill="#c9795a"/>
<rect x="36" y="48" width="12" height="12" fill="#141414"/>
<rect x="48" y="48" width="12" height="12" fill="#141414"/>
<rect x="60" y="48" width="12" height="12" fill="#c9795a"/>
<rect x="72" y="48" width="12" height="12" fill="#c9795a"/>
<rect x="84" y="48" width="12" height="12" fill="#141414"/>
<rect x="96" y="48" width="12" height="12" fill="#141414"/>
<rect x="108" y="48" width="12" height="12" fill="#c9795a"/>
<rect x="120" y="48" width="12" height="12" fill="#c9795a"/>
<rect x="132" y="48" width="12" height="12" fill="#c9795a"/>
<rect x="0" y="60" width="12" height="12" fill="#c9795a"/>
<rect x="12" y="60" width="12" height="12" fill="#c9795a"/>
<rect x="24" y="60" width="12" height="12" fill="#c9795a"/>
<rect x="36" y="60" width="12" height="12" fill="#c9795a"/>
<rect x="48" y="60" width="12" height="12" fill="#c9795a"/>
<rect x="60" y="60" width="12" height="12" fill="#c9795a"/>
<rect x="72" y="60" width="12" height="12" fill="#c9795a"/>
<rect x="84" y="60" width="12" height="12" fill="#c9795a"/>
<rect x="96" y="60" width="12" height="12" fill="#c9795a"/>
<rect x="108" y="60" width="12" height="12" fill="#c9795a"/>
<rect x="120" y="60" width="12" height="12" fill="#c9795a"/>
<rect x="132" y="60" width="12" height="12" fill="#c9795a"/>
<rect x="0" y="72" width="12" height="12" fill="#c9795a"/>
<rect x="12" y="72" width="12" height="12" fill="#c9795a"/>
<rect x="24" y="72" width="12" height="12" fill="#c9795a"/>
<rect x="36" y="72" width="12" height="12" fill="#c9795a"/>
<rect x="48" y="72" width="12" height="12" fill="#c9795a"/>
<rect x="60" y="72" width="12" height="12" fill="#c9795a"/>
<rect x="72" y="72" width="12" height="12" fill="#c9795a"/>
<rect x="84" y="72" width="12" height="12" fill="#c9795a"/>
<rect x="96" y="72" width="12" height="12" fill="#c9795a"/>
<rect x="108" y="72" width="12" height="12" fill="#c9795a"/>
<rect x="120" y="72" width="12" height="12" fill="#c9795a"/>
<rect x="132" y="72" width="12" height="12" fill="#c9795a"/>
<rect x="0" y="84" width="12" height="12" fill="#c9795a"/>
<rect x="12" y="84" width="12" height="12" fill="#c9795a"/>
<rect x="24" y="84" width="12" height="12" fill="#c9795a"/>
<rect x="36" y="84" width="12" height="12" fill="#c9795a"/>
<rect x="48" y="84" width="12" height="12" fill="#c9795a"/>
<rect x="60" y="84" width="12" height="12" fill="#c9795a"/>
<rect x="72" y="84" width="12" height="12" fill="#c9795a"/>
<rect x="84" y="84" width="12" height="12" fill="#c9795a"/>
<rect x="96" y="84" width="12" height="12" fill="#c9795a"/>
<rect x="108" y="84" width="12" height="12" fill="#c9795a"/>
<rect x="120" y="84" width="12" height="12" fill="#c9795a"/>
<rect x="132" y="84" width="12" height="12" fill="#c9795a"/>
<rect x="0" y="96" width="12" height="12" fill="#c9795a"/>
<rect x="12" y="96" width="12" height="12" fill="#c9795a"/>
<rect x="36" y="96" width="12" height="12" fill="#c9795a"/>
<rect x="48" y="96" width="12" height="12" fill="#c9795a"/>
<rect x="84" y="96" width="12" height="12" fill="#c9795a"/>
<rect x="96" y="96" width="12" height="12" fill="#c9795a"/>
<rect x="120" y="96" width="12" height="12" fill="#c9795a"/>
<rect x="132" y="96" width="12" height="12" fill="#c9795a"/>
<rect x="0" y="108" width="12" height="12" fill="#c9795a"/>
<rect x="36" y="108" width="12" height="12" fill="#c9795a"/>
<rect x="96" y="108" width="12" height="12" fill="#c9795a"/>
<rect x="132" y="108" width="12" height="12" fill="#c9795a"/>
</svg>

